<?xml version="1.0" standalone="no"?><!DOCTYPE svg PUBLIC "-//W3C//DTD SVG 1.1//EN" "http://www.w3.org/Graphics/SVG/1.1/DTD/svg11.dtd"><svg t="1633829271387" class="icon" viewBox="0 0 1024 1024" version="1.1" xmlns="http://www.w3.org/2000/svg" p-id="3886" width="512" height="512" xmlns:xlink="http://www.w3.org/1999/xlink"><defs><style type="text/css"></style></defs><path d="M898.624 149.930667 898.624 124.693333c0-53.290667-43.328-96.64-96.533333-96.64-14.08 0-27.84 3.093333-40.789333 9.152L501.333333 158.549333 241.344 37.205333C228.352 31.146667 214.613333 28.053333 200.533333 28.053333c-53.248 0-96.533333 43.349333-96.533333 96.64l0 25.344C36.757333 160.64 0 221.461333 0 294.869333l0 554.410667c0 80.874667 44.458667 146.666667 125.333333 146.666667L501.333333 995.946667l376 0c80.874667 0 146.666667-65.792 146.666667-146.666667L1024 294.869333C1024 221.248 969.408 160.298667 898.624 149.930667zM779.349333 75.861333c7.317333-3.413333 14.976-5.141333 22.762667-5.141333 25.877333 0 53.866667 20.629333 53.866667 53.973333l0 601.514667c0 20.842667-12.202667 40-31.082667 48.789333L522.666667 916.032 522.666667 195.648 779.349333 75.861333zM146.666667 124.693333c0-33.322667 27.946667-53.973333 53.866667-53.973333 7.808 0 15.466667 1.728 22.784 5.141333L480 195.648l0 720.362667-302.250667-141.013333c-18.88-8.768-31.082667-27.904-31.082667-48.768L146.666667 124.693333zM42.666667 849.301333 42.666667 294.869333c0-49.621333 19.093333-91.114667 61.333333-101.418667l0 532.757333c0 37.333333 21.866667 71.658667 55.68 87.466667l299.242667 139.626667L125.333333 953.301333C67.989333 953.301333 42.666667 906.624 42.666667 849.301333zM981.333333 849.301333c0 57.344-46.677333 104-104 104l-333.653333 0 299.221333-139.584c33.834667-15.872 55.701333-50.176 55.701333-87.509333L898.602667 193.109333C945.749333 202.965333 981.333333 244.842667 981.333333 294.869333L981.333333 849.301333z" p-id="3887"></path></svg>