<?xml version="1.0" standalone="no"?><!DOCTYPE svg PUBLIC "-//W3C//DTD SVG 1.1//EN" "http://www.w3.org/Graphics/SVG/1.1/DTD/svg11.dtd"><svg t="1633590520835" class="icon" viewBox="0 0 1305 1024" version="1.1" xmlns="http://www.w3.org/2000/svg" p-id="6037" width="652.5" height="512" xmlns:xlink="http://www.w3.org/1999/xlink"><defs><style type="text/css"></style></defs><path d="M653.867681 319.368103c-130.763296 0-238.000463 108.107557-238.000463 239.946041 0 131.838484 107.237167 239.946041 238.000463 239.946041 130.788896 0 238.026063-108.107557 238.026062-239.946041 0-131.838484-107.262766-239.946041-238.026062-239.946041zM256.304253 18.77636H117.707446v60.671302h138.596807V18.77636z m967.74567 121.317005H965.108901c-20.914959-13.183848-41.855519-39.551545-65.407248-84.402229C873.589954 0.318972 779.408637 0.318972 779.408637 0.318972H478.637696s-31.385239-7.910309-67.992818 55.372164c-23.551729 42.213915-47.103458 68.581611-68.018418 84.402229H83.711037C36.607579 140.042166 0 179.61931 0 229.717934v698.743965c0 50.098624 36.607579 89.650169 83.711037 89.650169h1137.727716c47.077859 0 83.711037-39.551545 83.711038-89.650169V229.717934c2.61117-50.098624-36.633179-89.624569-81.099868-89.624569zM653.867681 859.905887c-164.785305 0-298.159771-134.475254-298.159772-300.591743 0-166.11649 133.374466-300.591743 298.159772-300.591743S952.027452 393.223254 952.027452 559.365343c0 166.09089-135.985636 300.540544-298.159771 300.540544z m426.337497-540.537784a49.868227 49.868227 0 0 1-49.714629-50.098624c0-26.367697 20.940559-50.098624 49.714629-50.098623a49.868227 49.868227 0 0 1 49.689028 50.098623c-2.61117 29.004466-23.551729 50.098624-49.689028 50.098624z" fill="#B4B2B2" p-id="6038"></path></svg>