<?xml version="1.0" standalone="no"?><!DOCTYPE svg PUBLIC "-//W3C//DTD SVG 1.1//EN" "http://www.w3.org/Graphics/SVG/1.1/DTD/svg11.dtd"><svg t="1633400424042" class="icon" viewBox="0 0 1024 1024" version="1.1" xmlns="http://www.w3.org/2000/svg" p-id="4419" width="512" height="512" xmlns:xlink="http://www.w3.org/1999/xlink"><defs><style type="text/css"></style></defs><path d="M333.226667 375.893333a32 32 0 0 1 32-32h298.666666a32 32 0 0 1 0 64h-298.666666a32 32 0 0 1-32-32zM365.226667 493.226667a32 32 0 0 0 0 64h149.333333a32 32 0 0 0 0-64h-149.333333z" fill="#131419" p-id="4420"></path><path d="M138.666667 256c0-64.810667 52.522667-117.333333 117.333333-117.333333h512c64.810667 0 117.333333 52.522667 117.333333 117.333333v384c0 64.810667-52.522667 117.333333-117.333333 117.333333H483.84l-93.226667 104.277334-0.042666 0.042666c-45.653333 51.2-130.304 18.602667-130.304-49.706666V757.333333H256A117.312 117.312 0 0 1 138.666667 640V256zM256 202.666667A53.312 53.312 0 0 0 202.666667 256v384c0 29.482667 23.850667 53.333333 53.333333 53.333333h36.266667a32 32 0 0 1 32 32v86.613334c0 9.749333 12.16 14.250667 18.56 7.082666l0.042666-0.042666 102.826667-114.986667a32 32 0 0 1 23.850667-10.666667H768c29.482667 0 53.333333-23.850667 53.333333-53.333333V256c0-29.482667-23.850667-53.333333-53.333333-53.333333H256z" fill="#131419" p-id="4421"></path></svg>