<?xml version="1.0" standalone="no"?><!DOCTYPE svg PUBLIC "-//W3C//DTD SVG 1.1//EN" "http://www.w3.org/Graphics/SVG/1.1/DTD/svg11.dtd"><svg t="1633830234898" class="icon" viewBox="0 0 1024 1024" version="1.1" xmlns="http://www.w3.org/2000/svg" p-id="3466" width="512" height="512" xmlns:xlink="http://www.w3.org/1999/xlink"><defs><style type="text/css"></style></defs><path d="M571.245847 828.724525c-2.01489 0-4.049223-0.593518-5.828752-1.829671-4.641717-3.224438-5.789866-9.600659-2.566452-14.242376 22.883173-32.94125 57.508785-57.752332 100.134605-71.749114 32.003901-10.509355 57.157791-11.2973 58.21282-11.32493 0.094144-0.00307 0.188288-0.004093 0.280386-0.004093 5.523807 0 10.075473 4.402263 10.223852 9.956769 0.151449 5.646604-4.297886 10.345626-9.94142 10.505261-0.304945 0.00921-23.76424 0.817622-52.994981 10.511401-38.625716 12.808724-68.605517 34.267455-89.107457 63.780629C577.67221 827.190589 574.484611 828.724525 571.245847 828.724525z" p-id="3467"></path><path d="M412.751067 873.522824c-3.239787 0-6.42534-1.533936-8.413624-4.396123-49.285496-70.946842-180.685175-74.265424-182.006264-74.291007-5.650697-0.107447-10.144034-4.77577-10.035564-10.425444 0.107447-5.650697 4.792143-10.156314 10.426467-10.036587 1.450025 0.027629 35.974329 0.796132 77.56354 11.118222 56.825217 14.103206 97.489358 38.313607 120.860648 71.957869 3.224438 4.641717 2.075265 11.017938-2.566452 14.242376C416.801313 872.929306 414.764933 873.522824 412.751067 873.522824z" p-id="3468"></path><path d="M483.149417 896.809179c-5.65172 0-10.233062-4.582365-10.233062-10.233062L472.916355 650.52496c0-5.650697 4.581342-10.233062 10.233062-10.233062s10.233062 4.582365 10.233062 10.233062l0 236.051157C493.382479 892.226814 488.801137 896.809179 483.149417 896.809179z" p-id="3469"></path><path d="M363.470687 412.83242c-0.265036 0-0.531096-0.010233-0.800225-0.030699-5.634324-0.435928-9.849322-5.355985-9.413394-10.991332 2.153036-27.846208 12.968359-53.756321 31.277354-74.92955 18.125823-20.960381 41.892109-35.362392 68.729338-41.649586 5.505387-1.287319 11.008728 2.12643 12.297071 7.629771 1.289366 5.502317-2.12643 11.007705-7.629771 12.297071-46.707788 10.942213-80.573083 50.418296-84.270289 98.230232C373.248378 408.754544 368.76425 412.83242 363.470687 412.83242z" p-id="3470"></path><path d="M679.330518 493.9059c30.741142 62.015426 19.901259 133.148509-28.77844 167.452803-48.659233 34.30327-118.737288 20.255323-166.120458-29.970592-46.873564 49.753147-116.807333 63.098083-165.816536 28.310789-49.00818-34.802644-60.57461-106.004289-30.506804-167.69328-62.756299-27.959795-99.746772-89.909729-84.609003-148.002822 15.159258-58.211796 77.526701-92.894713 145.621589-84.689844 5.236258-71.764464 54.038754-128.361483 115.569132-130.039705 65.23884-1.766226 120.714316 58.871829 126.262682 136.607284 0.064468-0.017396 0.128937-0.034792 0.192382-0.052189 77.029374-20.491707 153.769153 15.85306 171.398672 81.176834C778.233062 405.13818 741.825874 466.630696 679.330518 493.9059z" p-id="3471"></path><path d="M589.598844 690.427762c-37.242206 0-75.051323-16.130376-105.169271-44.572148-29.484521 27.774577-66.680678 43.522236-103.493096 43.525306-0.00307 0-0.007163 0-0.010233 0-24.972764 0.001023-48.566112-7.378038-68.234057-21.339004-49.998741-35.504632-65.231677-106.217137-38.029128-171.142845-62.649875-32.274054-96.511077-96.208179-81.066317-155.478074 7.269567-27.91784 24.467251-51.624774 49.731658-68.556399 24.38641-16.343223 54.128805-24.980951 86.012979-24.980951 3.521197 0 7.072069 0.109494 10.626012 0.326435 4.337795-33.168424 17.690918-63.736627 38.146808-86.963631 23.189142-26.329668 53.836139-41.318034 86.295412-42.203194 1.023306-0.027629 2.041496-0.041956 3.056616-0.041956 33.872458 0 66.297962 15.258519 91.299379 42.963511 22.045085 24.429389 36.437887 56.502875 41.166585 91.323938 11.42726-2.2656 22.975271-3.41068 34.464953-3.41068 32.1707 0 62.303998 8.747221 87.140663 25.296129 25.698289 17.122983 43.295062 41.038672 50.884924 69.163219 16.010649 59.329247-17.226337 122.824373-79.555917 154.491607 27.888164 65.234747 13.3214 135.839805-36.420491 170.892135C637.234771 683.267689 614.118284 690.427762 589.598844 690.427762zM484.431619 621.155049c2.817162 0 5.509481 1.161453 7.443529 3.211135 27.336602 28.976962 62.954821 45.596478 97.723695 45.596478 20.274766 0 39.312354-5.866614 55.057967-16.966417 43.852764-30.901801 54.578036-95.897094 25.505907-154.543795-1.243317-2.509147-1.403976-5.418406-0.446162-8.049327 0.959861-2.63092 2.955308-4.754281 5.52176-5.873778 59.002812-25.7515 91.565439-82.4662 77.42744-134.855384-12.805654-47.447639-60.33311-79.326696-118.266567-79.326696-13.554714 0-27.223015 1.808182-40.622186 5.372358l-0.234337 0.063445c-2.942005 0.769526-6.076392 0.189312-8.549723-1.583055-2.472308-1.772366-4.028757-4.553713-4.244674-7.588839-5.160533-72.307839-56.262398-128.724757-115.77891-127.105886-55.319933 1.509377-100.735285 53.335742-105.639992 120.55468-0.203638 2.790556-1.541099 5.375427-3.700275 7.153934-2.159176 1.778506-4.949732 2.595105-7.730055 2.260483-6.17463-0.743944-12.417821-1.121544-18.554588-1.121544-57.161884 0-103.755062 31.438013-115.939569 78.230736-13.654998 52.40351 19.514449 109.63191 78.870302 136.077212 2.535753 1.12973 4.502547 3.239787 5.452175 5.847172 0.948605 2.607384 0.798179 5.489014-0.417509 7.982812-28.434609 58.337663-16.981766 123.467009 27.233248 154.866137 16.186657 11.489682 35.687804 17.561981 56.394405 17.559934 34.372855-0.002047 69.381184-16.237823 96.048543-44.544519 1.933025-2.051729 4.626367-3.215228 7.444553-3.216251C484.429573 621.155049 484.430596 621.155049 484.431619 621.155049z" p-id="3472"></path></svg>