<?xml version="1.0" standalone="no"?><!DOCTYPE svg PUBLIC "-//W3C//DTD SVG 1.1//EN" "http://www.w3.org/Graphics/SVG/1.1/DTD/svg11.dtd"><svg t="1633830202523" class="icon" viewBox="0 0 1024 1024" version="1.1" xmlns="http://www.w3.org/2000/svg" p-id="3219" width="512" height="512" xmlns:xlink="http://www.w3.org/1999/xlink"><defs><style type="text/css"></style></defs><path d="M599.425653 828.276317c-2.381234 0-4.787026-0.701988-6.889921-2.162246-5.486968-3.812839-6.843872-11.349489-3.03308-16.835434 55.29435-79.598896 154.497747-83.169211 158.693302-83.281775 0.11154-0.004093 0.223081-0.005117 0.331551-0.005117 6.53074 0 11.910261 5.204535 12.087293 11.771091 0.179079 6.67298-5.077645 12.226462-11.746532 12.416797l0 0c-0.908696 0.027629-91.307565 3.530406-139.496078 72.900334C607.020632 826.463018 603.254865 828.276317 599.425653 828.276317z" p-id="3220"></path><path d="M442.130188 872.736924c-3.828188 0-7.596002-1.812275-9.945513-5.195326-48.25298-69.463048-177.781032-72.871681-179.083701-72.898287-6.677073-0.134053-11.983939-5.653767-11.852956-12.33084 0.128937-6.598278 5.51562-11.859096 12.085246-11.859096 0.078795 0 0.157589 0.001023 0.23536 0.002047 5.819542 0.11154 143.156444 3.63683 198.485587 83.284845 3.810792 5.485945 2.452865 13.023618-3.03308 16.835434C446.916191 872.034936 444.511421 872.736924 442.130188 872.736924z" p-id="3221"></path><path d="M511.18596 895.785873c-6.680143 0-12.096503-5.41636-12.096503-12.096503L499.089457 649.417743c0-6.67912 5.41636-12.095479 12.096503-12.095479s12.096503 5.41636 12.096503 12.095479L523.282462 883.689371C523.282462 890.369513 517.866103 895.785873 511.18596 895.785873z" p-id="3222"></path><path d="M393.221268 415.521668c-0.313132 0-0.62831-0.01228-0.944512-0.036839-6.6607-0.514723-11.642155-6.332219-11.128455-12.992919 2.170432-28.052916 13.06455-54.154387 31.509644-75.483158 18.258852-21.1149 42.200124-35.623335 69.234851-41.956577 6.510274-1.523703 13.013385 2.515287 14.537088 9.018398 1.524726 6.504134-2.514263 13.012362-9.018398 14.536065-45.528939 10.665921-78.538751 49.14428-82.141812 95.749738C404.778488 410.69985 399.478785 415.521668 393.221268 415.521668z" p-id="3223"></path><path d="M617.641527 691.022303c-36.907585 0-74.346265-15.72924-104.377232-43.521213-29.405727 27.127847-66.236564 42.481534-102.710266 42.484603-25.193799 0.002047-49.003064-7.445576-68.854181-21.537526-49.944506-35.46677-65.49569-105.71674-39.090297-170.532955-61.968353-32.702819-95.28925-96.488565-79.860862-155.693991 14.685467-56.392358 69.580728-94.28334 136.599098-94.28334 2.938935 0 5.89936 0.075725 8.863878 0.227174 4.595668-32.608675 17.897625-62.631456 38.084387-85.552491 23.375383-26.54047 54.28844-41.649586 87.047542-42.541909 1.032516-0.028653 2.059915-0.042979 3.085268-0.042979 34.17638 0 66.865897 15.371082 92.054579 43.279712 21.710464 24.057929 36.029588 55.487755 41.048905 89.64674 10.824533-2.02103 21.723767-3.038196 32.570813-3.038196 32.311917 0 62.5895 8.795317 87.558172 25.431206 25.90295 17.259082 43.640939 41.378409 51.29834 69.75162 15.996322 59.267848-16.696264 122.620735-78.343299 154.735154 27.081799 65.116043 12.184507 135.26573-37.515429 170.286338C665.707242 683.793668 642.378931 691.022303 617.641527 691.022303zM513.268388 618.392122c3.330862 0 6.513344 1.372254 8.800433 3.794419 26.764574 28.373211 61.59894 44.644803 95.572706 44.644803 19.71911 0 38.22765-5.700839 53.526077-16.48444 42.735313-30.114878 53.118801-93.588515 24.692379-150.930501-1.470491-2.966565-1.660826-6.404873-0.527003-9.515724 1.1328-3.109828 3.491521-5.618974 6.525624-6.943133 57.669444-25.170263 89.524966-80.497359 75.746148-131.555222-12.476149-46.230927-58.893318-77.293387-115.500571-77.293387-13.283538 0-26.680663 1.771343-39.816844 5.266957l-0.317225 0.083911c-3.474125 0.88209-7.157004 0.184195-10.063193-1.913583-2.907213-2.096754-4.731768-5.373381-4.987594-8.946766-5.047969-70.733994-54.860469-125.931131-112.917746-124.346029-53.901631 1.470491-98.165764 52.134381-102.959953 117.848035-0.240477 3.297093-1.821485 6.353708-4.373611 8.456602-2.553149 2.101871-5.848195 3.066849-9.137101 2.671852-6.051833-0.728594-12.169157-1.099031-18.182105-1.099031-55.834656 0-101.32164 30.617321-113.187899 76.18924-13.31219 51.085492 19.150152 106.932428 77.187987 132.789329 2.996241 1.335415 5.322216 3.829212 6.443759 6.912433 1.121544 3.082198 0.944512 6.487761-0.493234 9.437953-27.802206 57.039087-16.697287 120.653941 26.406416 151.263076 15.734356 11.169387 34.701336 17.072841 54.847166 17.071817 33.580816-0.002047 67.811432-15.895015 93.91188-43.600007 2.285043-2.425236 5.469572-3.799536 8.801457-3.800559C513.266341 618.392122 513.267365 618.392122 513.268388 618.392122z" p-id="3224"></path></svg>