<?xml version="1.0" standalone="no"?><!DOCTYPE svg PUBLIC "-//W3C//DTD SVG 1.1//EN" "http://www.w3.org/Graphics/SVG/1.1/DTD/svg11.dtd"><svg t="1633830114536" class="icon" viewBox="0 0 1024 1024" version="1.1" xmlns="http://www.w3.org/2000/svg" p-id="1743" width="512" height="512" xmlns:xlink="http://www.w3.org/1999/xlink"><defs><style type="text/css"></style></defs><path d="M885.465319 948.366416c-5.54018 0-10.033517-4.493338-10.033517-10.033517 0-109.34743-48.546669-211.866339-133.191488-281.267988-4.285606-3.515057-4.910846-9.836019-1.39886-14.121626 3.514033-4.285606 9.834996-4.91187 14.122649-1.397836 89.311095 73.229838 140.534733 181.403536 140.534733 296.78745C895.498836 943.873078 891.005498 948.366416 885.465319 948.366416zM138.533658 948.366416c-5.542226 0-10.033517-4.493338-10.033517-10.033517 0-51.77827 10.140964-102.011348 30.140461-149.305491 19.315928-45.676295 46.965661-86.695524 82.183767-121.918747 35.217083-35.223223 76.229149-62.878073 121.898281-82.198094 47.285956-20.00359 97.511871-30.146601 149.280932-30.146601 6.185886 0 12.435217 0.147356 18.579147 0.437975 5.53404 0.26299 9.809413 4.963035 9.547447 10.498098-0.261966 5.53404-4.952802 9.785877-10.497075 9.54847-5.827729-0.277316-11.759835-0.416486-17.630542-0.416486-200.398146 0-363.435383 163.065889-363.435383 363.501898C148.567175 943.873078 144.074861 948.366416 138.533658 948.366416z" p-id="1744"></path><path d="M518.304078 576.267722c-66.812685 0-129.624243-26.038026-176.86722-73.318866-47.239907-47.27777-73.256444-110.137423-73.256444-176.998203s26.016537-129.71941 73.256444-176.998203c47.242977-47.279816 110.054535-73.317843 176.86722-73.317843 66.812685 0 129.624243 26.038026 176.866197 73.317843 47.239907 47.278793 73.256444 110.137423 73.256444 176.998203s-26.016537 129.720434-73.256444 176.998203C647.928321 550.229696 585.116763 576.267722 518.304078 576.267722zM518.304078 95.700619c-126.85313 0-230.055606 103.290481-230.055606 230.250034 0 126.960577 103.202477 230.251058 230.055606 230.251058 126.854153 0 230.055606-103.290481 230.055606-230.251058C748.359684 198.990077 645.158231 95.700619 518.304078 95.700619z" p-id="1745"></path></svg>