<?xml version="1.0" standalone="no"?><!DOCTYPE svg PUBLIC "-//W3C//DTD SVG 1.1//EN" "http://www.w3.org/Graphics/SVG/1.1/DTD/svg11.dtd"><svg t="1633400418633" class="icon" viewBox="0 0 1024 1024" version="1.1" xmlns="http://www.w3.org/2000/svg" p-id="4164" width="512" height="512" xmlns:xlink="http://www.w3.org/1999/xlink"><defs><style type="text/css"></style></defs><path d="M654.933333 264.533333v119.68h136.106667c67.84 0 118.4 62.293333 104.32 128.64l-49.28 233.386667a106.474667 106.474667 0 0 1-104.533333 85.76H213.333333c-47.146667 0-85.333333-38.186667-85.333333-85.333333V512c0-47.146667 38.186667-85.333333 85.333333-85.333333h126.08l162.133334-213.76c49.493333-65.066667 153.386667-30.08 153.386666 51.626666zM352 565.333333a32 32 0 0 0-64 0v128a32 32 0 0 0 64 0v-128z" fill="#131419" p-id="4165"></path></svg>