<?xml version="1.0" standalone="no"?><!DOCTYPE svg PUBLIC "-//W3C//DTD SVG 1.1//EN" "http://www.w3.org/Graphics/SVG/1.1/DTD/svg11.dtd"><svg t="1634364474863" class="icon" viewBox="0 0 1024 1024" version="1.1" xmlns="http://www.w3.org/2000/svg" p-id="3858" width="512" height="512" xmlns:xlink="http://www.w3.org/1999/xlink"><defs><style type="text/css"></style></defs><path d="M736.256 929.792H291.84v-40.96c0-75.776 1.024-428.032 1.024-428.032 0-37.888 11.264-74.752 31.744-107.52l123.904-191.488c21.504-32.768 49.152-67.584 113.664-67.584 49.152 0 76.8 23.552 91.136 43.008 43.008 60.416 23.552 164.864-2.048 244.736h201.728c30.72 0 59.392 13.312 78.848 36.864 17.408 21.504 24.576 49.152 19.456 75.776L892.928 778.24c-20.48 91.136-82.944 151.552-156.672 151.552z m-362.496-81.92h362.496c33.792 0 65.536-35.84 76.8-87.04L870.4 477.184c0-1.024 1.024-4.096-2.048-7.168-3.072-4.096-9.216-6.144-15.36-6.144H643.072c-27.648 0-53.248-14.336-67.584-37.888-12.288-20.48-13.312-46.08-3.072-67.584 25.6-79.872 31.744-149.504 14.336-173.056-2.048-3.072-7.168-9.216-24.576-9.216-21.504 0-28.672 4.096-45.056 30.72L393.216 398.336c-12.288 19.456-18.432 40.96-18.432 62.464 0 0-1.024 269.312-1.024 387.072z" fill="#333C4F" p-id="3859"></path><path d="M373.76 929.792H198.656C129.024 929.792 71.68 873.472 71.68 802.816v-5.12l45.056-340.992c2.048-40.96 35.84-73.728 77.824-73.728h179.2v546.816zM153.6 804.864c1.024 23.552 21.504 43.008 45.056 43.008h93.184V463.872h-93.184v1.024L153.6 804.864z" fill="#333C4F" p-id="3860"></path></svg>