<?xml version="1.0" standalone="no"?><!DOCTYPE svg PUBLIC "-//W3C//DTD SVG 1.1//EN" "http://www.w3.org/Graphics/SVG/1.1/DTD/svg11.dtd"><svg t="1633400402143" class="icon" viewBox="0 0 1024 1024" version="1.1" xmlns="http://www.w3.org/2000/svg" p-id="3647" width="512" height="512" xmlns:xlink="http://www.w3.org/1999/xlink"><defs><style type="text/css"></style></defs><path d="M590.933333 264.533333c0-17.706667-16-21.546667-22.186666-21.546666-6.613333 0-11.733333 2.773333-16.213334 8.533333l-162.133333 213.76c-12.16 16-30.933333 25.386667-50.986667 25.386667H213.333333c-11.733333 0-21.333333 9.6-21.333333 21.333333v234.666667c0 11.733333 9.6 21.333333 21.333333 21.333333h528c20.266667 0 37.76-14.506667 41.813334-34.346667l49.493333-234.24c3.626667-17.28-3.84-29.653333-8.533333-35.626666-4.693333-5.973333-15.36-15.786667-33.066667-15.786667H654.933333c-35.413333 0-64-28.586667-64-64v-119.466667z m-89.386666-51.626666c17.92-23.466667 42.666667-33.92 67.2-33.92 43.733333 0 86.186667 33.28 86.186666 85.76v119.466666h136.106667c67.84 0 118.4 62.293333 104.32 128.64l-49.28 233.386667a106.474667 106.474667 0 0 1-104.533333 85.76H213.333333c-47.146667 0-85.333333-38.186667-85.333333-85.333333V512c0-47.146667 38.186667-85.333333 85.333333-85.333333h126.08l162.133334-213.76zM352 565.333333a32 32 0 0 0-64 0v128a32 32 0 0 0 64 0v-128z" fill="#131419" p-id="3648"></path><path d="M590.933333 264.533333c0-17.706667-16-21.546667-22.186666-21.546666-6.613333 0-11.733333 2.773333-16.213334 8.533333l-162.133333 213.76c-12.16 16-30.933333 25.386667-50.986667 25.386667H213.333333c-11.733333 0-21.333333 9.6-21.333333 21.333333v234.666667c0 11.733333 9.6 21.333333 21.333333 21.333333h528c20.266667 0 37.76-14.506667 41.813334-34.346667l49.493333-234.24c3.626667-17.28-3.84-29.653333-8.533333-35.626666-4.693333-5.973333-15.36-15.786667-33.066667-15.786667H654.933333c-35.413333 0-64-28.586667-64-64v-119.466667z m-89.386666-51.626666c17.92-23.466667 42.666667-33.92 67.2-33.92 43.733333 0 86.186667 33.28 86.186666 85.76v119.466666h136.106667c67.84 0 118.4 62.293333 104.32 128.64l-49.28 233.386667a106.474667 106.474667 0 0 1-104.533333 85.76H213.333333c-47.146667 0-85.333333-38.186667-85.333333-85.333333V512c0-47.146667 38.186667-85.333333 85.333333-85.333333h126.08l162.133334-213.76zM352 565.333333a32 32 0 0 0-64 0v128a32 32 0 0 0 64 0v-128z" fill="#131419" p-id="3649"></path></svg>