<?xml version="1.0" standalone="no"?><!DOCTYPE svg PUBLIC "-//W3C//DTD SVG 1.1//EN" "http://www.w3.org/Graphics/SVG/1.1/DTD/svg11.dtd"><svg t="1632562338548" class="icon" viewBox="0 0 1024 1024" version="1.1" xmlns="http://www.w3.org/2000/svg" p-id="3729" width="64" height="64" xmlns:xlink="http://www.w3.org/1999/xlink"><defs><style type="text/css"></style></defs><path d="M528.953 384.409c-65.347 0-118.494 53.474-118.494 119.243 0 65.756 53.151 119.258 118.494 119.258 6.541 0 13.264-0.677 21.172-2.129 9.217-1.671 15.328-10.559 13.639-19.813-1.67-9.284-10.461-15.49-19.69-13.722-5.858 1.062-10.668 1.561-15.11 1.561-46.654 0-84.602-38.189-84.602-85.143 0-46.943 37.95-85.143 84.602-85.143 46.662 0 84.611 38.201 84.611 85.143 0 4.483-0.493 9.3-1.554 15.194-1.692 9.254 4.421 18.142 13.619 19.826 9.217 1.69 18.043-4.453 19.71-13.724 1.436-7.949 2.116-14.711 2.116-21.299 0-65.765-53.165-119.243-118.513-119.243zM878.497 436.518c-1.259-6.653-6.291-11.934-12.847-13.437-37.171-8.604-68.059-31.513-86.979-64.502-18.907-32.973-23.189-71.287-12.062-107.918 1.972-6.455-0.048-13.472-5.113-17.891-34.08-29.647-72.992-52.253-115.681-67.204-6.322-2.218-13.377-0.48-17.959 4.468-25.966 28.023-61.091 43.451-98.898 43.451-37.815 0-72.932-15.426-98.905-43.451-4.576-4.931-11.618-6.692-17.965-4.468-42.655 14.951-81.571 37.558-115.661 67.214-5.072 4.404-7.086 11.417-5.127 17.891 11.13 36.623 6.841 74.943-12.069 107.898-18.927 32.985-49.799 55.895-86.947 64.502-6.555 1.504-11.594 6.782-12.85 13.437-4.29 22.676-6.455 45.268-6.455 67.137 0 21.869 2.163 44.455 6.455 67.136 1.259 6.653 6.293 11.931 12.85 13.435 37.154 8.624 68.035 31.518 86.955 64.502 18.908 32.954 23.189 71.291 12.069 107.92-1.95 6.436 0.045 13.454 5.127 17.876 34.086 29.644 72.999 52.271 115.655 67.214 1.821 0.626 3.698 0.941 5.567 0.941 4.619 0 9.127-1.901 12.394-5.428 25.974-28.023 61.091-43.435 98.905-43.435 37.805 0 72.931 15.407 98.898 43.435 4.581 4.971 11.599 6.692 17.972 4.489 42.638-14.927 81.54-37.534 115.646-67.204 5.067-4.4 7.084-11.415 5.109-17.876-11.105-36.623-6.819-74.98 12.082-107.934 18.917-32.985 49.799-55.895 86.979-64.502 6.559-1.504 11.59-6.779 12.847-13.435 4.29-22.725 6.455-45.313 6.455-67.136s-2.169-44.407-6.459-67.137zM847.015 553.936c-41.081 12.51-76.271 40.355-97.703 77.728-21.403 37.337-27.803 81.903-18.094 123.882-26.135 21.269-55.198 38.16-86.612 50.319-31.502-29.843-72.129-46.145-115.646-46.145-42.836 0-84.361 16.698-115.634 46.162-31.435-12.172-60.49-29.062-86.612-50.332 9.938-42.362 3.649-85.941-18.098-123.882-21.443-37.374-56.624-65.211-97.68-77.728-2.692-17.028-4.045-33.899-4.045-50.282 0-16.388 1.355-33.252 4.045-50.284 41.034-12.51 76.22-40.365 97.661-77.741 21.429-37.324 27.818-81.869 18.098-123.855 26.128-21.285 55.188-38.163 86.631-50.335 31.269 29.477 72.8 46.163 115.634 46.163 43.515 0 84.153-16.304 115.646-46.163 31.446 12.172 60.515 29.052 86.628 50.335-9.729 41.956-3.343 86.521 18.075 123.855 21.451 37.374 56.646 65.231 97.703 77.741 2.681 17.065 4.038 33.929 4.038 50.284 0.001 16.354-1.351 33.219-4.038 50.282z" p-id="3730"></path></svg>