<?xml version="1.0" standalone="no"?><!DOCTYPE svg PUBLIC "-//W3C//DTD SVG 1.1//EN" "http://www.w3.org/Graphics/SVG/1.1/DTD/svg11.dtd"><svg t="1634362693797" class="icon" viewBox="0 0 1024 1024" version="1.1" xmlns="http://www.w3.org/2000/svg" p-id="3020" width="512" height="512" xmlns:xlink="http://www.w3.org/1999/xlink"><defs><style type="text/css"></style></defs><path d="M466.24 461.248v91.584h91.52V461.248h-91.52z m519.488 23.104C974.784 246.4 783.104 53.248 546.88 42.304 282.304 30.016 63.872 242.432 63.872 506.304c0 69.248 15.04 134.976 42.048 193.984 29.248 64.064 16.064 139.712-32.512 190.528L5.376 961.792c-3.264 3.392-0.832 9.088 3.84 9.088h475.648l-0.32-1.856c13.376 1.28 26.88 1.856 40.512 1.856 261.952 0 472.832-219.968 460.672-486.528z m-274.688 68.48c17.664 0 32 14.336 32 32 0 8.832-3.584 16.832-9.344 22.592-5.824 5.824-13.824 9.408-22.656 9.408H621.76v89.216c0 17.728-14.336 32-32 32a31.872 31.872 0 0 1-22.592-9.344 31.8144 31.8144 0 0 1-9.408-22.656V616.832h-91.52v89.216c0 17.728-14.336 32-32 32a31.872 31.872 0 0 1-22.592-9.344 31.8144 31.8144 0 0 1-9.408-22.656V616.832H312.96c-17.664 0-32-14.336-32-32 0-8.832 3.584-16.832 9.344-22.592 5.824-5.824 13.824-9.408 22.656-9.408h89.28V461.248H312.96c-17.664 0-32-14.336-32-32 0-8.832 3.584-16.832 9.344-22.656 5.824-5.76 13.824-9.344 22.656-9.344h89.28V308.032c0-17.664 14.336-32 32-32 8.832 0 16.832 3.584 22.592 9.344 5.824 5.824 9.408 13.824 9.408 22.656v89.216h91.52V308.032c0-17.664 14.336-32 32-32 8.832 0 16.832 3.584 22.592 9.344 5.824 5.824 9.408 13.824 9.408 22.656v89.216h89.28c17.664 0 32 14.336 32 32 0 8.832-3.584 16.832-9.344 22.656-5.824 5.76-13.824 9.344-22.656 9.344H621.76v91.584h89.28z m-244.8 0h91.52V461.248h-91.52v91.584z" fill="#2c2c2c" p-id="3021"></path></svg>