<?xml version="1.0" standalone="no"?><!DOCTYPE svg PUBLIC "-//W3C//DTD SVG 1.1//EN" "http://www.w3.org/Graphics/SVG/1.1/DTD/svg11.dtd"><svg t="1633072091525" class="icon" viewBox="0 0 1024 1024" version="1.1" xmlns="http://www.w3.org/2000/svg" p-id="1564" xmlns:xlink="http://www.w3.org/1999/xlink" width="512" height="512"><defs><style type="text/css"></style></defs><path d="M64.67 512c2.03-148.27 27.78-271.04 103.07-344.26C240.96 92.45 363.73 66.7 512 64.67c148.27 2.03 271.04 27.78 344.26 103.07C931.55 240.96 957.3 363.73 959.33 512c-2.03 148.27-27.78 271.04-103.07 344.26C783.04 931.55 660.27 957.3 512 959.33c-148.27-2.03-271.04-27.78-344.26-103.07C92.45 783.04 66.7 660.27 64.67 512z" p-id="1565" data-spm-anchor-id="a313x.7781069.0.i2" class="selected" fill="#8AE1FC"></path><path d="M706.07 405.35H327.44c-18.64 0-33.9-15.25-33.9-33.9 0-18.64 15.25-33.9 33.9-33.9h378.62c18.64 0 33.9 15.25 33.9 33.9 0 18.64-15.25 33.9-33.89 33.9zM706.07 563.37H327.44c-18.64 0-33.9-15.25-33.9-33.9 0-18.64 15.25-33.9 33.9-33.9h378.62c18.64 0 33.9 15.25 33.9 33.9s-15.25 33.9-33.89 33.9zM475.54 721.4h-148.1c-18.64 0-33.9-15.25-33.9-33.9 0-18.64 15.25-33.9 33.9-33.9h148.09c18.64 0 33.9 15.25 33.9 33.9 0.01 18.65-15.25 33.9-33.89 33.9z" fill="#FFFFFF" p-id="1566"></path></svg>