<?xml version="1.0" standalone="no"?><!DOCTYPE svg PUBLIC "-//W3C//DTD SVG 1.1//EN" "http://www.w3.org/Graphics/SVG/1.1/DTD/svg11.dtd"><svg t="1633093282262" class="icon" viewBox="0 0 1024 1024" version="1.1" xmlns="http://www.w3.org/2000/svg" p-id="3592" xmlns:xlink="http://www.w3.org/1999/xlink" width="512" height="512"><defs><style type="text/css"></style></defs><path d="M64.67 512c2.03-148.27 27.78-271.04 103.07-344.26C240.96 92.45 363.73 66.7 512 64.67c148.27 2.03 271.04 27.78 344.26 103.07C931.55 240.96 957.3 363.73 959.33 512c-2.03 148.27-27.78 271.04-103.07 344.26C783.04 931.55 660.27 957.3 512 959.33c-148.27-2.03-271.04-27.78-344.26-103.07C92.45 783.04 66.7 660.27 64.67 512z" p-id="3593" data-spm-anchor-id="a313x.7781069.0.i13" class="selected" fill="#515151"></path><path d="M684.84 757.97c32.66 0 51.9-37.43 32.23-63.51C670.2 632.3 595.86 592.09 512 592.09S353.8 632.3 306.93 694.46c-19.67 26.08-0.43 63.51 32.23 63.51h345.68zM512 266.03c-78.24 0-141.66 63.42-141.66 141.66S433.76 549.35 512 549.35s141.66-63.42 141.66-141.66c0-78.23-63.42-141.66-141.66-141.66z m45.71 237.55c-10.45 13.85-27.01 22.82-45.7 22.82s-35.26-8.96-45.71-22.82c-4.38-5.81-0.1-14.16 7.18-14.16h77.04c7.28 0 11.57 8.35 7.19 14.16z" fill="#FFFFFF" p-id="3594"></path></svg>