<?xml version="1.0" standalone="no"?><!DOCTYPE svg PUBLIC "-//W3C//DTD SVG 1.1//EN" "http://www.w3.org/Graphics/SVG/1.1/DTD/svg11.dtd"><svg t="1633072154868" class="icon" viewBox="0 0 1024 1024" version="1.1" xmlns="http://www.w3.org/2000/svg" p-id="2880" xmlns:xlink="http://www.w3.org/1999/xlink" width="512" height="512"><defs><style type="text/css"></style></defs><path d="M64.67 512c2.03-148.27 27.78-271.04 103.07-344.26C240.96 92.45 363.73 66.7 512 64.67c148.27 2.03 271.04 27.78 344.26 103.07C931.55 240.96 957.3 363.73 959.33 512c-2.03 148.27-27.78 271.04-103.07 344.26C783.04 931.55 660.27 957.3 512 959.33c-148.27-2.03-271.04-27.78-344.26-103.07C92.45 783.04 66.7 660.27 64.67 512z" p-id="2881" data-spm-anchor-id="a313x.7781069.0.i17" class="selected" fill="#D5D6D7"></path><path d="M512 309.73c-127.94 0-231.65 85.86-231.65 191.78 0 74.88 51.88 139.7 127.47 171.27l-23.14 24.43c-6.96 7.34 0.01 19.22 9.81 16.73l87.9-22.27c9.71 1.03 19.58 1.61 29.62 1.61 127.94 0 231.65-85.86 231.65-191.78-0.01-105.91-103.72-191.77-231.66-191.77zM374.04 501.5c0-17.13 13.89-31.02 31.02-31.02s31.02 13.89 31.02 31.02-13.89 31.02-31.02 31.02-31.02-13.89-31.02-31.02zM512 543.17c-23.01 0-41.66-18.65-41.66-41.66 0-23.01 18.65-41.66 41.66-41.66 23.01 0 41.66 18.65 41.66 41.66 0 23-18.65 41.66-41.66 41.66z m106.94-10.65c-17.13 0-31.02-13.89-31.02-31.02s13.89-31.02 31.02-31.02 31.02 13.89 31.02 31.02-13.89 31.02-31.02 31.02z" fill="#FFFFFF" p-id="2882"></path></svg>