<?xml version="1.0" standalone="no"?><!DOCTYPE svg PUBLIC "-//W3C//DTD SVG 1.1//EN" "http://www.w3.org/Graphics/SVG/1.1/DTD/svg11.dtd"><svg t="1633081747564" class="icon" viewBox="0 0 1024 1024" version="1.1" xmlns="http://www.w3.org/2000/svg" p-id="23351" xmlns:xlink="http://www.w3.org/1999/xlink" width="512" height="512"><defs><style type="text/css"></style></defs><path d="M323.556 256l11.548-92.388a56.889 56.889 0 0 1 56.462-49.834h240.868a56.889 56.889 0 0 1 56.462 49.834L700.444 256h209.778a56.889 56.889 0 0 1 56.89 56.889v540.444a56.889 56.889 0 0 1-56.89 56.89H113.778a56.889 56.889 0 0 1-56.89-56.89V312.89A56.889 56.889 0 0 1 113.779 256h209.778zM512 782.222A199.111 199.111 0 1 0 512 384a199.111 199.111 0 0 0 0 398.222z m0-56.889a142.222 142.222 0 1 1 0-284.444 142.222 142.222 0 0 1 0 284.444zM176.071 232.306a28.444 28.444 0 1 1 0-56.89h57.401a28.444 28.444 0 1 1 0 56.89h-57.4z" p-id="23352" fill="#ffffff"></path></svg>