<?xml version="1.0" standalone="no"?><!DOCTYPE svg PUBLIC "-//W3C//DTD SVG 1.1//EN" "http://www.w3.org/Graphics/SVG/1.1/DTD/svg11.dtd"><svg t="1634374129611" class="icon" viewBox="0 0 1024 1024" version="1.1" xmlns="http://www.w3.org/2000/svg" p-id="2442" width="512" height="512" xmlns:xlink="http://www.w3.org/1999/xlink"><defs><style type="text/css"></style></defs><path d="M512 801.792c-205.824 0-373.76-167.936-373.76-373.76S306.176 54.272 512 54.272s373.76 167.936 373.76 373.76S717.824 801.792 512 801.792z m0-665.6c-160.768 0-291.84 131.072-291.84 291.84S351.232 719.872 512 719.872s291.84-131.072 291.84-291.84S672.768 136.192 512 136.192z" fill="#333C4F" p-id="2443"></path><path d="M414.72 460.8c-22.528 0-40.96-18.432-40.96-40.96v-40.96c0-22.528 18.432-40.96 40.96-40.96s40.96 18.432 40.96 40.96v40.96c0 22.528-18.432 40.96-40.96 40.96zM609.28 460.8c-22.528 0-40.96-18.432-40.96-40.96v-40.96c0-22.528 18.432-40.96 40.96-40.96s40.96 18.432 40.96 40.96v40.96c0 22.528-18.432 40.96-40.96 40.96zM775.168 969.728c-22.528 0-40.96-18.432-40.96-40.96 0-51.2-12.288-88.064-37.888-110.592-34.816-31.744-83.968-27.648-83.968-27.648-22.528 2.048-41.984-14.336-44.032-36.864-2.048-22.528 14.336-41.984 36.864-44.032 3.072 0 84.992-7.168 146.432 48.128 43.008 38.912 64.512 97.28 64.512 172.032 0 21.504-17.408 39.936-40.96 39.936zM248.832 969.728c-22.528 0-40.96-18.432-40.96-40.96 0-75.776 21.504-133.12 64.512-172.032 61.44-56.32 143.36-48.128 146.432-48.128 22.528 2.048 38.912 22.528 36.864 45.056-2.048 22.528-22.528 38.912-44.032 36.864-1.024 0-50.176-3.072-83.968 27.648-24.576 22.528-37.888 60.416-37.888 110.592 0 22.528-18.432 40.96-40.96 40.96z" fill="#333C4F" p-id="2444"></path></svg>