<?xml version="1.0" standalone="no"?><!DOCTYPE svg PUBLIC "-//W3C//DTD SVG 1.1//EN" "http://www.w3.org/Graphics/SVG/1.1/DTD/svg11.dtd"><svg t="1633093263736" class="icon" viewBox="0 0 1024 1024" version="1.1" xmlns="http://www.w3.org/2000/svg" p-id="3104" xmlns:xlink="http://www.w3.org/1999/xlink" width="512" height="512"><defs><style type="text/css"></style></defs><path d="M64.67 512c2.03-148.27 27.78-271.04 103.07-344.26C240.96 92.45 363.73 66.7 512 64.67c148.27 2.03 271.04 27.78 344.26 103.07C931.55 240.96 957.3 363.73 959.33 512c-2.03 148.27-27.78 271.04-103.07 344.26C783.04 931.55 660.27 957.3 512 959.33c-148.27-2.03-271.04-27.78-344.26-103.07C92.45 783.04 66.7 660.27 64.67 512z" p-id="3105" data-spm-anchor-id="a313x.7781069.0.i9" class="selected" fill="#515151"></path><path d="M707.27 458.34L552.35 310.61c-21.46-20.46-59.25-20.46-80.71 0L316.73 458.34c-8.74 8.34-13.57 19.1-13.57 30.24v194.57c0 25.18 24.14 45.58 53.93 45.58h85.96c16.49 0 29.85-11.3 29.85-25.24v-69.98c0-15.77 12.54-30.18 30.8-33.41 25.09-4.44 47.41 11.85 47.41 32.32v71.07c0 13.94 13.37 25.24 29.85 25.24h85.96c29.78 0 53.93-20.41 53.93-45.58V488.58c-0.01-11.14-4.83-21.9-13.58-30.24z" fill="#FFFFFF" p-id="3106"></path></svg>