<?xml version="1.0" standalone="no"?><!DOCTYPE svg PUBLIC "-//W3C//DTD SVG 1.1//EN" "http://www.w3.org/Graphics/SVG/1.1/DTD/svg11.dtd"><svg t="1634457979420" class="icon" viewBox="0 0 1024 1024" version="1.1" xmlns="http://www.w3.org/2000/svg" p-id="5683" width="512" height="512" xmlns:xlink="http://www.w3.org/1999/xlink"><defs><style type="text/css"></style></defs><path d="M857.56 576.68c0.51-7.72 0.79-15.47 0.79-23.27 0-46.74-9.16-92.11-27.23-134.83-17.45-41.25-42.42-78.28-74.21-110.08-27.7-27.7-59.39-50.22-94.36-67.1C660.78 159.89 593.93 94.12 512 94.12s-148.78 65.77-150.55 147.29c-34.98 16.88-66.66 39.39-94.36 67.1-31.8 31.8-56.77 68.84-74.21 110.08-18.07 42.72-27.23 88.08-27.23 134.83 0 7.8 0.27 15.56 0.79 23.27-49.51 24.69-83.61 75.86-83.61 134.85 0 83.03 67.55 150.59 150.59 150.59 29.96 0 57.89-8.79 81.37-23.93a344.67 344.67 0 0 0 62.39 34.35c42.72 18.07 88.08 27.23 134.83 27.23s92.11-9.16 134.83-27.23a344.67 344.67 0 0 0 62.39-34.35c23.48 15.14 51.42 23.93 81.37 23.93 83.03 0 150.59-67.55 150.59-150.59-0.01-59-34.11-110.16-83.63-134.86zM512 154.35c49.82 0 90.35 40.53 90.35 90.35 0 49.82-40.53 90.35-90.35 90.35-49.82 0-90.35-40.53-90.35-90.35 0-49.81 40.53-90.35 90.35-90.35zM143.06 711.53c0-49.82 40.53-90.35 90.35-90.35s90.35 40.53 90.35 90.35-40.53 90.35-90.35 90.35-90.35-40.53-90.35-90.35z m368.94 128c-56.34 0-108.92-16.38-153.26-44.62 15.95-23.89 25.26-52.57 25.26-83.38 0-83.03-67.55-150.59-150.59-150.59-2.49 0-4.96 0.06-7.42 0.18-0.07-2.56-0.11-5.13-0.11-7.71 0-107.46 59.55-201.26 147.38-250.16 22.89 54.04 76.46 92.04 138.74 92.04 62.28 0 115.85-38.01 138.74-92.04 87.83 48.9 147.38 142.7 147.38 250.16 0 2.58-0.04 5.15-0.11 7.71-2.46-0.12-4.93-0.18-7.42-0.18-83.04 0-150.59 67.56-150.59 150.59 0 30.81 9.31 59.49 25.26 83.38-44.34 28.24-96.92 44.62-153.26 44.62z m278.59-37.65c-49.82 0-90.35-40.53-90.35-90.35s40.53-90.35 90.35-90.35 90.35 40.53 90.35 90.35-40.53 90.35-90.35 90.35z" p-id="5684"></path></svg>