<?xml version="1.0" standalone="no"?><!DOCTYPE svg PUBLIC "-//W3C//DTD SVG 1.1//EN" "http://www.w3.org/Graphics/SVG/1.1/DTD/svg11.dtd"><svg t="1634458110942" class="icon" viewBox="0 0 1024 1024" version="1.1" xmlns="http://www.w3.org/2000/svg" p-id="6988" width="512" height="512" xmlns:xlink="http://www.w3.org/1999/xlink"><defs><style type="text/css"></style></defs><path d="M403.680263 1003.291815c-273.985218-63.717493-446.022448-337.702711-375.933206-611.687929s337.702711-446.022448 611.687929-375.933206c101.947988 25.486997 197.524227 76.460991 267.613469 159.293731l-50.973994 44.602245c-63.717493-70.089242-140.178484-114.691487-229.382973-140.178484C378.193266 22.042429 142.438543 168.592662 85.0928 410.719134s95.576239 477.881194 331.330961 535.226938C473.769504 958.68957 531.115248 958.68957 594.83274 945.946072l12.743499 63.717493C537.486997 1022.407063 467.397755 1022.407063 403.680263 1003.291815z" p-id="6989"></path><path d="M397.308513 633.730358 346.334519 595.499862l267.613469-273.985218c38.230496-44.602245 95.576239-63.717493 159.293731-70.089242 63.717493 0 114.691487 19.115248 159.293731 63.717493L1021.739941 397.975636 977.137696 448.94963l-89.20449-89.20449c-63.717493-63.717493-165.665481-57.345743-223.011224 6.371749L397.308513 633.730358z" p-id="6990"></path><path d="M824.215714 894.972078 537.486997 894.972078c-50.973994 0-95.576239-44.602245-95.576239-95.576239L441.910758 595.499862l63.717493 0 0 197.524227c0 19.115248 12.743499 31.858746 31.858746 31.858746l280.356967 0c19.115248 0 31.858746-12.743499 31.858746-31.858746L849.702711 404.347385l63.717493 0 0 388.676705C919.791952 850.369833 875.189708 894.972078 824.215714 894.972078z" p-id="6991"></path><path d="M792.356967 831.254585l-63.717493 0 0-133.806734c0-19.115248-12.743499-31.858746-31.858746-31.858746s-31.858746 12.743499-31.858746 31.858746L664.921982 831.254585l-63.717493 0 0-133.806734c0-50.973994 44.602245-95.576239 95.576239-95.576239s95.576239 44.602245 95.576239 95.576239L792.356967 831.254585z" p-id="6992"></path><path d="M747.754722 958.68957c-12.743499 0-25.486997 0-31.858746 6.371749-6.371749 0-25.486997 6.371749-31.858746-6.371749-6.371749-12.743499-12.743499-19.115248-6.371749-25.486997 6.371749-6.371749 12.743499-12.743499 31.858746-12.743499 6.371749 0 19.115248-6.371749 31.858746-6.371749 12.743499 0 19.115248 0 25.486997 12.743499 6.371749 6.371749 6.371749 12.743499 6.371749 19.115248C779.613469 952.317821 760.498221 958.68957 747.754722 958.68957z" p-id="6993"></path><path d="M894.304955 1009.663564c-12.743499 6.371749-44.602245 12.743499-50.973994 12.743499s-31.858746 6.371749-38.230496-6.371749-6.371749-19.115248-6.371749-25.486997c6.371749-6.371749 19.115248-19.115248 38.230496-19.115248 6.371749 0 25.486997-6.371749 38.230496-6.371749 12.743499 0 31.858746 0 31.858746 12.743499l0 0C907.048454 996.920066 900.676705 1003.291815 894.304955 1009.663564z" p-id="6994"></path></svg>