<?xml version="1.0" standalone="no"?><!DOCTYPE svg PUBLIC "-//W3C//DTD SVG 1.1//EN" "http://www.w3.org/Graphics/SVG/1.1/DTD/svg11.dtd"><svg t="1633252578729" class="icon" viewBox="0 0 1059 1024" version="1.1" xmlns="http://www.w3.org/2000/svg" p-id="6582" width="529.5" height="512" xmlns:xlink="http://www.w3.org/1999/xlink"><defs><style type="text/css"></style></defs><path d="M944.69 465.712h-64.539c-3.085-43.082-13.122-84.935-29.97-124.768-16.127-38.13-37.907-73.11-64.903-104.294l45.63-45.63c11.24-11.24 11.24-29.462 0-40.7-11.237-11.24-29.461-11.24-40.7 0l-45.63 45.63c-31.19-27.001-66.164-48.776-104.294-64.902-39.833-16.849-81.685-26.886-124.769-29.97v-64.54c0-15.895-12.885-28.781-28.78-28.781-15.895 0-28.781 12.885-28.781 28.781v64.54c-43.082 3.084-84.935 13.121-124.768 29.97-38.131 16.132-73.104 37.906-104.294 64.903l-45.63-45.631c-11.239-11.24-29.462-11.24-40.7 0-11.239 11.238-11.239 29.462 0 40.7l45.63 45.63c-27.002 31.19-48.777 66.164-64.902 104.294-16.85 39.833-26.886 81.685-29.971 124.768h-64.54c-15.894 0-28.78 12.887-28.78 28.781 0 15.895 12.885 28.782 28.78 28.782h64.54c3.085 43.082 13.12 84.935 29.971 124.768 16.125 38.136 37.906 73.104 64.902 104.294l-45.63 45.63c-11.239 11.24-11.239 29.462 0 40.7a28.686 28.686 0 0 0 20.351 8.433c7.362 0 14.726-2.81 20.348-8.433l45.63-45.63c31.19 27.001 66.165 48.776 104.295 64.902 39.833 16.849 81.685 26.886 124.768 29.976v64.534c0 15.895 12.885 28.781 28.781 28.781 15.894 0 28.78-12.885 28.78-28.781v-64.534c43.084-3.09 84.936-13.127 124.77-29.976 38.136-16.126 73.103-37.906 104.293-64.903l45.63 45.631a28.686 28.686 0 0 0 20.352 8.433c7.364 0 14.732-2.81 20.349-8.433 11.239-11.238 11.239-29.462 0-40.7l-45.63-45.63c27-31.19 48.775-66.159 64.907-104.294 16.843-39.833 26.88-81.685 29.97-124.768h64.54c15.895 0 28.776-12.886 28.776-28.782 0-15.894-12.887-28.78-28.782-28.78z m-457.955 365.68c-185.766 0-336.9-151.133-336.9-336.899s151.134-336.898 336.9-336.898 336.898 151.133 336.898 336.898-151.132 336.899-336.898 336.899z m0 0" fill="" p-id="6583"></path><path d="M750.641 477.667l-62.5 64.324c-5.097 5.035-13.492 5.035-18.655 0l-62.187-64.324c-7.4-8.893-2.426-11.941 2.674-17.04h56.901c-15.73-86.719-90.294-152.408-180.216-152.408-69.46 0-129.907 39.311-161.06 97.104l-31.094-12.628c36.191-70.355 108.576-118.38 192.03-118.38 108.33 0 197.814 80.808 213.858 186.311h47.26c5.413 5.039 8.086 12.003 2.99 17.041zM304.702 464.044l62.497 64.32c5.1 5.039 2.426 11.948-2.674 17.046h-54.166c21.768 78.194 92.409 135.427 176.3 135.427 63.866 0 120.019-33.22 152.791-83.485l31.341 12.751c-38.118 62.708-106.214 104.57-184.131 104.57-102.422 0-187.864-72.345-210.438-169.325h-49.687c-5.097-5.035-10.073-8.21-2.674-17.046l62.126-64.32c5.22-5.1 13.615-5.1 18.715 0.062z" fill="" p-id="6584"></path></svg>