<?xml version="1.0" standalone="no"?><!DOCTYPE svg PUBLIC "-//W3C//DTD SVG 1.1//EN" "http://www.w3.org/Graphics/SVG/1.1/DTD/svg11.dtd"><svg t="1633245316890" class="icon" viewBox="0 0 1026 1024" version="1.1" xmlns="http://www.w3.org/2000/svg" p-id="7443" width="513" height="512" xmlns:xlink="http://www.w3.org/1999/xlink"><defs><style type="text/css"></style></defs><path d="M68.534857 768.036571A512.256 512.256 0 0 1 659.126857 21.467429a36.571429 36.571429 0 0 1 1.462857 69.595428 329.398857 329.398857 0 0 0-213.504 238.116572L331.556571 329.142857l-4.242285 0.256a36.571429 36.571429 0 0 0 0 72.630857l4.242285 0.256H438.857143a329.325714 329.325714 0 0 0 480.365714 292.461715 36.571429 36.571429 0 0 1 49.444572 49.005714 512.109714 512.109714 0 0 1-848.822858 97.426286L221.842286 841.142857l4.278857-0.256a36.571429 36.571429 0 0 0 0-72.630857L221.842286 768zM660.699429 512h182.857142a36.571429 36.571429 0 0 1 4.278858 72.886857l-4.278858 0.256h-182.857142a36.571429 36.571429 0 0 1-4.242286-72.886857z m292.571428 0h36.571429a36.571429 36.571429 0 0 1 4.278857 72.886857l-4.278857 0.256h-36.571429a36.571429 36.571429 0 0 1-4.242286-72.886857l4.242286-0.256zM493.714286 329.142857a36.571429 36.571429 0 0 1 4.278857 72.886857L493.714286 402.285714H438.857143a328.886857 328.886857 0 0 1 8.228571-73.106285z m240.128 0a36.571429 36.571429 0 0 1 4.278857 72.886857l-4.278857 0.256h-109.714286a36.571429 36.571429 0 0 1-4.242286-72.886857L624.128 329.142857zM68.534857 768.036571a515.657143 515.657143 0 0 0 51.309714 73.142858L38.985143 841.142857a36.571429 36.571429 0 0 1-4.242286-72.886857L38.985143 768z" fill="#404853" p-id="7444"></path></svg>